<?xml version="1.0" encoding="UTF-8" standalone="no"?>
<svg width="2100px" height="2970px" version="1.1" xmlns="http://www.w3.org/2000/svg" xmlns:xlink="http://www.w3.org/1999/xlink" overflow="visible" id="u15syeld">
   <desc>Engraved by Verovio 5.6.0-dev-69952b0</desc>
   <defs>
      <g id="E050-u15syeld">
         <path transform="scale(1,-1)" d="M441 -245c-23 -4 -48 -6 -76 -6c-59 0 -102 7 -130 20c-88 42 -150 93 -187 154c-26 44 -43 103 -48 176c0 6 -1 13 -1 19c0 54 15 111 45 170c29 57 65 106 110 148s96 85 153 127c-3 16 -8 46 -13 92c-4 43 -5 73 -5 89c0 117 16 172 69 257c34 54 64 82 89 82 c21 0 43 -30 69 -92s39 -115 41 -159v-15c0 -109 -21 -162 -67 -241c-13 -20 -63 -90 -98 -118c-13 -9 -25 -19 -37 -29l31 -181c8 1 18 2 28 2c58 0 102 -12 133 -35c59 -43 92 -104 98 -184c1 -7 1 -15 1 -22c0 -123 -87 -209 -181 -248c8 -57 17 -110 25 -162 c5 -31 6 -58 6 -80c0 -30 -5 -53 -14 -70c-35 -64 -88 -99 -158 -103c-5 0 -11 -1 -16 -1c-37 0 -72 10 -108 27c-50 24 -77 59 -80 105v11c0 29 7 55 20 76c18 28 45 42 79 44h6c49 0 93 -42 97 -87v-9c0 -51 -34 -86 -105 -106c17 -24 51 -36 102 -36c62 0 116 43 140 85 c9 16 13 41 13 74c0 20 -1 42 -5 67c-8 53 -18 106 -26 159zM461 939c-95 0 -135 -175 -135 -286c0 -24 2 -48 5 -71c50 39 92 82 127 128c40 53 60 100 60 140v8c-4 53 -22 81 -55 81h-2zM406 119l54 -326c73 25 110 78 110 161c0 7 0 15 -1 23c-7 95 -57 142 -151 142h-12 zM382 117c-72 -2 -128 -47 -128 -120v-7c2 -46 43 -99 75 -115c-3 -2 -7 -5 -10 -10c-70 33 -116 88 -123 172v11c0 68 44 126 88 159c23 17 49 29 78 36l-29 170c-21 -13 -52 -37 -92 -73c-50 -44 -86 -84 -109 -119c-45 -69 -67 -130 -67 -182v-13c5 -68 35 -127 93 -176 s125 -73 203 -73c25 0 50 3 75 9c-19 111 -36 221 -54 331z" />
      </g>
      <g id="E082-u15syeld">
         <path transform="scale(1,-1)" d="M124 -185c-18 0 -55 -14 -65 -65h-36l-3 30c0 25 6 45 18 63c11 19 22 30 39 43l121 82l37 29c15 11 27 29 38 54c12 24 18 47 18 70c0 40 -19 88 -94 88c-25 0 -32 0 -50 -8c-14 -5 -23 -12 -26 -22c3 -9 7 -15 10 -18l24 -17c12 -7 17 -11 27 -21c5 -7 7 -16 7 -27 c0 -12 0 -57 -79 -74c-30 0 -76 26 -76 94c0 66 81 135 197 135c72 0 181 -32 181 -150c0 -53 -32 -95 -113 -133l-91 -41c-26 -11 -45 -23 -57 -37l49 7c84 0 115 -41 148 -41c20 0 33 20 39 61h35c0 -152 -68 -168 -114 -168c-17 0 -65 0 -79 7h10l-28 17 c-49 37 -69 40 -87 42z" />
      </g>
      <g id="E0A3-u15syeld">
         <path transform="scale(1,-1)" d="M278 64c0 22 -17 39 -43 39c-12 0 -26 -3 -41 -10c-85 -43 -165 -94 -165 -156c5 -25 15 -32 49 -32c67 11 200 95 200 159zM0 -36c0 68 73 174 200 174c66 0 114 -39 114 -97c0 -84 -106 -173 -218 -173c-64 0 -96 32 -96 96z" />
      </g>
      <g id="E273-u15syeld">
         <path transform="scale(1,-1)" d="M18 80v-188l122 19v189zM0 -202v579h18v-205l139 24v-591l39 50h26l-74 -160l-74 160h26l40 -52v220z" />
      </g>
      <g id="E062-u15syeld">
         <path transform="scale(1,-1)" d="M582 -120c0 32 26 58 58 58s58 -26 58 -58s-26 -58 -58 -58s-58 26 -58 58zM582 120c0 32 26 58 58 58s58 -26 58 -58s-26 -58 -58 -58s-58 26 -58 58zM158 96c51 0 73 -14 88 -49l16 -39c0 -17 -2 -30 -7 -40c-3 -11 -10 -21 -19 -31c-17 -18 -49 -43 -84 -43 c-55 0 -77 13 -112 44c-24 21 -35 55 -35 100c0 46 14 81 32 112c30 52 71 79 137 93l36 6l26 2c154 0 235 -68 274 -182c11 -32 18 -68 18 -107c0 -103 -26 -182 -68 -250c-89 -145 -234 -230 -412 -288l-30 -5c-9 0 -14 3 -14 8c3 10 5 11 10 16c35 15 70 30 96 44l78 43 c96 57 162 136 197 258c9 33 17 60 22 100c3 22 5 35 6 39c-7 69 -16 115 -23 140s-4 22 -16 40c-8 12 -19 23 -31 34c-24 21 -62 44 -118 44c-48 0 -84 -8 -113 -28c-28 -19 -42 -44 -42 -73v-16c2 -5 3 -9 4 -11c24 22 52 39 84 39z" />
      </g>
      <g id="E0A2-u15syeld">
         <path transform="scale(1,-1)" d="M198 133c102 0 207 -45 207 -133c0 -92 -118 -133 -227 -133c-101 0 -178 46 -178 133c0 88 93 133 198 133zM293 -21c0 14 -3 29 -8 44c-7 20 -18 38 -33 54c-20 21 -43 31 -68 31l-20 -2c-15 -5 -27 -14 -36 -28c-4 -9 -6 -17 -8 -24s-3 -16 -3 -27c0 -15 3 -34 9 -57 s18 -41 34 -55c15 -15 36 -23 62 -23c4 0 10 1 18 2c19 5 32 15 40 30s13 34 13 55z" />
      </g>
      <g id="E260-u15syeld">
         <path transform="scale(1,-1)" d="M20 110c32 16 54 27 93 27c26 0 35 -3 54 -13c13 -7 24 -20 27 -38l4 -25c0 -28 -16 -57 -45 -89c-23 -25 -39 -44 -65 -68l-88 -79v644h20v-359zM90 106c-32 0 -48 -10 -70 -29v-194c31 31 54 59 71 84c21 32 32 59 32 84c0 9 1 16 1 20c0 14 -3 21 -11 30l-8 3z" />
      </g>
      <g id="E275-u15syeld">
         <path transform="scale(1,-1)" d="M60 73v-167l76 22v168zM0 54v92l43 13v169h17v-163l76 21v169h17v-164l44 14v-91l-44 -14v-165l44 12v-91l-44 -13v-248l39 50h26l-74 -160l-74 160h26l40 -52v245l-76 -22v-155h-17v149l-43 -13v90l43 14v167z" />
      </g>
      <g id="E261-u15syeld">
         <path transform="scale(1,-1)" d="M0 -188v539h18v-191l139 22v-533h-17v186zM18 -100l122 17v176l-122 -19v-174z" />
      </g>
   </defs>
   <style type="text/css">#u15syeld g.page-margin {font-family:Times,serif;}#u15syeld g.ending, #u15syeld g.fing, #u15syeld g.reh, #u15syeld g.tempo {font-weight:bold;}#u15syeld g.dir, #u15syeld g.dynam, #u15syeld g.mNum {font-style:italic;}#u15syeld g.label {font-weight:normal;}#u15syeld path {stroke:currentColor}</style>
   <svg class="definition-scale" color="black" viewBox="0 0 21000 29700">
      <g class="page-margin" transform="translate(500, 500)">
         <g id="es778x7" class="mdiv pageMilestone" />
         <g id="f1h55xm8" class="score pageMilestone" />
         <g id="q1ohff6x" class="system">
            <path d="M13 1819 L13 4339" stroke-width="27" />
            <g id="w3wzgwv" class="grpSym">
               <path d="M-72,4321 C-432,3781 18,3259 -252,3079 C81,3259 -369,3781 -72,4321" stroke-linecap="round" stroke-linejoin="round" stroke-width="18" />
               <path d="M-72,1837 C-369,2377 81,2899 -252,3079 C18,2899 -432,2377 -72,1837" stroke-linecap="round" stroke-linejoin="round" stroke-width="18" />
            </g>
            <g id="hbgwxnl" class="section systemMilestone" />
            <g id="n1n42lqn" class="measure">
               <g id="wmavuqo" class="staff">
                  <path d="M0 1819 L4288 1819" stroke-width="13" />
                  <path d="M0 1999 L4288 1999" stroke-width="13" />
                  <path d="M0 2179 L4288 2179" stroke-width="13" />
                  <path d="M0 2359 L4288 2359" stroke-width="13" />
                  <path d="M0 2539 L4288 2539" stroke-width="13" />
                  <g id="s1sk7pu6" class="clef">
                     <use xlink:href="#E050-u15syeld" transform="translate(117, 2359) scale(0.72, 0.72)" />
                  </g>
                  <g id="ttjl20r" class="keySig" />
                  <g id="u1nst3so" class="meterSig">
                     <use xlink:href="#E082-u15syeld" transform="translate(784, 1999) scale(0.72, 0.72)" />
                     <use xlink:href="#E082-u15syeld" transform="translate(784, 2359) scale(0.72, 0.72)" />
                  </g>
                  <g id="zf234ye" class="layer">
                     <g id="bw1s6zw" class="chord">
                        <g id="n18bx6e3" class="stem">
                           <path d="M1665 1934 L1665 2719" stroke-width="18" />
                        </g>
                        <g id="aoagzbg" class="note">
                           <g class="notehead">
                              <use xlink:href="#E0A3-u15syeld" transform="translate(1656, 2089) scale(0.72, 0.72)" />
                           </g>
                        </g>
                        <g id="coqmwtn" class="note">
                           <g class="notehead">
                              <use xlink:href="#E0A3-u15syeld" transform="translate(1656, 1909) scale(0.72, 0.72)" />
                           </g>
                           <g id="d1lyhlxf" class="accid">
                              <use xlink:href="#E273-u15syeld" transform="translate(1452, 1909) scale(0.72, 0.72)" />
                           </g>
                        </g>
                     </g>
                     <g id="guy5avd" class="chord">
                        <g id="ov6ltz6" class="stem">
                           <path d="M2975 2024 L2975 2779" stroke-width="18" />
                        </g>
                        <g id="enpny7k" class="note">
                           <g class="notehead">
                              <use xlink:href="#E0A3-u15syeld" transform="translate(2966, 2179) scale(0.72, 0.72)" />
                           </g>
                           <g id="ffk7e1d" class="accid">
                              <use xlink:href="#E273-u15syeld" transform="translate(2762, 2179) scale(0.72, 0.72)" />
                           </g>
                        </g>
                        <g id="hzlmhxg" class="note">
                           <g class="notehead">
                              <use xlink:href="#E0A3-u15syeld" transform="translate(2966, 1999) scale(0.72, 0.72)" />
                           </g>
                        </g>
                     </g>
                  </g>
               </g>
               <g id="xhp4hk9" class="staff">
                  <path d="M0 3619 L4288 3619" stroke-width="13" />
                  <path d="M0 3799 L4288 3799" stroke-width="13" />
                  <path d="M0 3979 L4288 3979" stroke-width="13" />
                  <path d="M0 4159 L4288 4159" stroke-width="13" />
                  <path d="M0 4339 L4288 4339" stroke-width="13" />
                  <g id="v1wxh4qm" class="clef">
                     <use xlink:href="#E062-u15syeld" transform="translate(117, 3799) scale(0.72, 0.72)" />
                  </g>
                  <g id="wtsfmgy" class="keySig" />
                  <g id="xirgv3x" class="meterSig">
                     <use xlink:href="#E082-u15syeld" transform="translate(784, 3799) scale(0.72, 0.72)" />
                     <use xlink:href="#E082-u15syeld" transform="translate(784, 4159) scale(0.72, 0.72)" />
                  </g>
                  <g class="ledgerLines above">
                     <path d="M1608 3439 L1994 3439" stroke-width="22" />
                     <path d="M1608 3259 L1994 3259" stroke-width="22" />
                     <path d="M1608 3079 L1994 3079" stroke-width="22" />
                  </g>
                  <g id="i1m98bjt" class="layer">
                     <g id="jcyd3yd" class="note">
                        <g class="notehead">
                           <use xlink:href="#E0A2-u15syeld" transform="translate(1656, 3079) scale(0.72, 0.72)" />
                        </g>
                     </g>
                  </g>
                  <g id="k18whrbq" class="layer">
                     <g id="ltp2mr7" class="note">
                        <g class="notehead">
                           <use xlink:href="#E0A3-u15syeld" transform="translate(1656, 3439) scale(0.72, 0.72)" />
                        </g>
                        <g id="q1u3dcz6" class="stem">
                           <path d="M1665 3464 L1665 4069" stroke-width="18" />
                        </g>
                     </g>
                     <g id="m3yx7zh" class="note">
                        <g class="notehead">
                           <use xlink:href="#E0A3-u15syeld" transform="translate(2966, 3709) scale(0.72, 0.72)" />
                        </g>
                        <g id="r8lpj72" class="stem">
                           <path d="M2975 3734 L2975 4339" stroke-width="18" />
                        </g>
                     </g>
                  </g>
               </g>
               <g id="y5250k2" class="tempo" xml:lang="it">
                  <text x="879" y="1765" font-size="0px" />
               </g>
               <g id="vgqlvn6" class="barLine">
                  <path d="M4275 1819 L4275 2539" stroke-width="27" />
                  <path d="M4275 3619 L4275 4339" stroke-width="27" />
                  <path d="M4275 2539 L4275 3619" stroke-width="27" />
               </g>
            </g>
            <g id="ntzthqh" class="measure">
               <g id="w12n989l" class="staff">
                  <path d="M4288 1819 L7612 1819" stroke-width="13" />
                  <path d="M4288 1999 L7612 1999" stroke-width="13" />
                  <path d="M4288 2179 L7612 2179" stroke-width="13" />
                  <path d="M4288 2359 L7612 2359" stroke-width="13" />
                  <path d="M4288 2539 L7612 2539" stroke-width="13" />
                  <g id="y4idff2" class="layer">
                     <g id="b1yx7lv5" class="chord">
                        <g id="snigg1a" class="stem">
                           <path d="M4990 2024 L4990 2779" stroke-width="18" />
                        </g>
                        <g id="z1lpxe74" class="note">
                           <g class="notehead">
                              <use xlink:href="#E0A3-u15syeld" transform="translate(4981, 2179) scale(0.72, 0.72)" />
                           </g>
                           <g id="ap4ctbl" class="accid">
                              <use xlink:href="#E260-u15syeld" transform="translate(4606, 2179) scale(0.72, 0.72)" />
                           </g>
                        </g>
                        <g id="c1i4852n" class="note">
                           <g class="notehead">
                              <use xlink:href="#E0A3-u15syeld" transform="translate(4981, 1999) scale(0.72, 0.72)" />
                           </g>
                           <g id="d1myzord" class="accid">
                              <use xlink:href="#E273-u15syeld" transform="translate(4777, 1999) scale(0.72, 0.72)" />
                           </g>
                        </g>
                     </g>
                     <g id="g6qsc4m" class="chord">
                        <g id="tnah42z" class="stem">
                           <path d="M6299 2114 L6299 2839" stroke-width="18" />
                        </g>
                        <g id="e1s5j1os" class="note">
                           <g class="notehead">
                              <use xlink:href="#E0A3-u15syeld" transform="translate(6290, 2269) scale(0.72, 0.72)" />
                           </g>
                           <g id="fmdjar6" class="accid">
                              <use xlink:href="#E273-u15syeld" transform="translate(6086, 2269) scale(0.72, 0.72)" />
                           </g>
                        </g>
                        <g id="h1huyx2" class="note">
                           <g class="notehead">
                              <use xlink:href="#E0A3-u15syeld" transform="translate(6290, 2089) scale(0.72, 0.72)" />
                           </g>
                        </g>
                     </g>
                  </g>
               </g>
               <g id="x1fh9jyh" class="staff">
                  <path d="M4288 3619 L7612 3619" stroke-width="13" />
                  <path d="M4288 3799 L7612 3799" stroke-width="13" />
                  <path d="M4288 3979 L7612 3979" stroke-width="13" />
                  <path d="M4288 4159 L7612 4159" stroke-width="13" />
                  <path d="M4288 4339 L7612 4339" stroke-width="13" />
                  <g class="ledgerLines above">
                     <path d="M4933 3439 L5319 3439" stroke-width="22" />
                     <path d="M4933 3259 L5319 3259" stroke-width="22" />
                  </g>
                  <g id="i17mn6s8" class="layer">
                     <g id="j17z566a" class="note">
                        <g class="notehead">
                           <use xlink:href="#E0A2-u15syeld" transform="translate(4981, 3169) scale(0.72, 0.72)" />
                        </g>
                     </g>
                  </g>
                  <g id="keuzitx" class="layer">
                     <g id="lq2u312" class="note">
                        <g class="notehead">
                           <use xlink:href="#E0A3-u15syeld" transform="translate(4981, 3529) scale(0.72, 0.72)" />
                        </g>
                        <g id="v1afj5ge" class="stem">
                           <path d="M4990 3554 L4990 4159" stroke-width="18" />
                        </g>
                        <g id="m1n5wjan" class="accid">
                           <use xlink:href="#E260-u15syeld" transform="translate(4794, 3529) scale(0.72, 0.72)" />
                        </g>
                     </g>
                     <g id="nbk7xlh" class="note">
                        <g class="notehead">
                           <use xlink:href="#E0A3-u15syeld" transform="translate(6290, 3799) scale(0.72, 0.72)" />
                        </g>
                        <g id="w1wzl339" class="stem">
                           <path d="M6299 3824 L6299 4429" stroke-width="18" />
                        </g>
                     </g>
                  </g>
               </g>
               <g id="vappe38" class="barLine">
                  <path d="M7599 1819 L7599 2539" stroke-width="27" />
                  <path d="M7599 3619 L7599 4339" stroke-width="27" />
                  <path d="M7599 2539 L7599 3619" stroke-width="27" />
               </g>
            </g>
            <g id="o1ofqsgo" class="measure">
               <g id="x1tbxysh" class="staff">
                  <path d="M7612 1819 L10723 1819" stroke-width="13" />
                  <path d="M7612 1999 L10723 1999" stroke-width="13" />
                  <path d="M7612 2179 L10723 2179" stroke-width="13" />
                  <path d="M7612 2359 L10723 2359" stroke-width="13" />
                  <path d="M7612 2539 L10723 2539" stroke-width="13" />
                  <g id="z1gwe9ml" class="layer">
                     <g id="b1mgi7v9" class="chord">
                        <g id="x1opwni5" class="stem">
                           <path d="M8308 2331 L8308 1579" stroke-width="18" />
                        </g>
                        <g id="a3ercti" class="note">
                           <g class="notehead">
                              <use xlink:href="#E0A3-u15syeld" transform="translate(8091, 2359) scale(0.72, 0.72)" />
                           </g>
                        </g>
                        <g id="cfqlzbf" class="note">
                           <g class="notehead">
                              <use xlink:href="#E0A3-u15syeld" transform="translate(8091, 2179) scale(0.72, 0.72)" />
                           </g>
                           <g id="d1ybszv7" class="accid">
                              <use xlink:href="#E273-u15syeld" transform="translate(7887, 2179) scale(0.72, 0.72)" />
                           </g>
                        </g>
                     </g>
                     <g id="g10lotyu" class="chord">
                        <g id="y19yg9sm" class="stem">
                           <path d="M9618 2421 L9618 1639" stroke-width="18" />
                        </g>
                        <g id="e12h7xs6" class="note">
                           <g class="notehead">
                              <use xlink:href="#E0A3-u15syeld" transform="translate(9401, 2449) scale(0.72, 0.72)" />
                           </g>
                           <g id="fzzet0k" class="accid">
                              <use xlink:href="#E275-u15syeld" transform="translate(9200, 2449) scale(0.72, 0.72)" />
                           </g>
                        </g>
                        <g id="h134mr9o" class="note">
                           <g class="notehead">
                              <use xlink:href="#E0A3-u15syeld" transform="translate(9401, 2269) scale(0.72, 0.72)" />
                           </g>
                        </g>
                     </g>
                  </g>
               </g>
               <g id="y1q3pmw9" class="staff">
                  <path d="M7612 3619 L10723 3619" stroke-width="13" />
                  <path d="M7612 3799 L10723 3799" stroke-width="13" />
                  <path d="M7612 3979 L10723 3979" stroke-width="13" />
                  <path d="M7612 4159 L10723 4159" stroke-width="13" />
                  <path d="M7612 4339 L10723 4339" stroke-width="13" />
                  <g class="ledgerLines above">
                     <path d="M8043 3439 L8429 3439" stroke-width="22" />
                  </g>
                  <g id="i17jjl8n" class="layer">
                     <g id="jgm9wp5" class="note">
                        <g class="notehead">
                           <use xlink:href="#E0A2-u15syeld" transform="translate(8091, 3349) scale(0.72, 0.72)" />
                        </g>
                     </g>
                  </g>
                  <g id="keucfad" class="layer">
                     <g id="l69plib" class="note">
                        <g class="notehead">
                           <use xlink:href="#E0A3-u15syeld" transform="translate(8091, 3709) scale(0.72, 0.72)" />
                        </g>
                        <g id="a130wsj2" class="stem">
                           <path d="M8100 3734 L8100 4339" stroke-width="18" />
                        </g>
                     </g>
                     <g id="m1nmmf7n" class="note">
                        <g class="notehead">
                           <use xlink:href="#E0A3-u15syeld" transform="translate(9401, 3979) scale(0.72, 0.72)" />
                        </g>
                        <g id="b1rkegyk" class="stem">
                           <path d="M9410 4004 L9410 4579" stroke-width="18" />
                        </g>
                     </g>
                  </g>
               </g>
               <g id="w1jhkk3t" class="barLine">
                  <path d="M10710 1819 L10710 2539" stroke-width="27" />
                  <path d="M10710 3619 L10710 4339" stroke-width="27" />
                  <path d="M10710 2539 L10710 3619" stroke-width="27" />
               </g>
            </g>
            <g id="n6gtzny" class="measure">
               <g id="w1e9bneg" class="staff">
                  <path d="M10723 1819 L14011 1819" stroke-width="13" />
                  <path d="M10723 1999 L14011 1999" stroke-width="13" />
                  <path d="M10723 2179 L14011 2179" stroke-width="13" />
                  <path d="M10723 2359 L14011 2359" stroke-width="13" />
                  <path d="M10723 2539 L14011 2539" stroke-width="13" />
                  <g id="yrnvo6w" class="layer">
                     <g id="b1239zq9" class="chord">
                        <g id="c1ioscfv" class="stem">
                           <path d="M11596 2421 L11596 1639" stroke-width="18" />
                        </g>
                        <g id="z1sto0p3" class="note">
                           <g class="notehead">
                              <use xlink:href="#E0A3-u15syeld" transform="translate(11379, 2449) scale(0.72, 0.72)" />
                           </g>
                           <g id="apysuvw" class="accid">
                              <use xlink:href="#E261-u15syeld" transform="translate(11033, 2449) scale(0.72, 0.72)" />
                           </g>
                        </g>
                        <g id="c1kvdmrq" class="note">
                           <g class="notehead">
                              <use xlink:href="#E0A3-u15syeld" transform="translate(11379, 2269) scale(0.72, 0.72)" />
                           </g>
                           <g id="d81srcb" class="accid">
                              <use xlink:href="#E273-u15syeld" transform="translate(11175, 2269) scale(0.72, 0.72)" />
                           </g>
                        </g>
                     </g>
                     <g id="geavlaj" class="chord">
                        <g id="d136tnfh" class="stem">
                           <path d="M12906 2511 L12906 1729" stroke-width="18" />
                        </g>
                        <g id="e1qsy06e" class="note">
                           <g class="notehead">
                              <use xlink:href="#E0A3-u15syeld" transform="translate(12689, 2539) scale(0.72, 0.72)" />
                           </g>
                           <g id="f1166xtr" class="accid">
                              <use xlink:href="#E273-u15syeld" transform="translate(12485, 2539) scale(0.72, 0.72)" />
                           </g>
                        </g>
                        <g id="hvmatr8" class="note">
                           <g class="notehead">
                              <use xlink:href="#E0A3-u15syeld" transform="translate(12689, 2359) scale(0.72, 0.72)" />
                           </g>
                        </g>
                     </g>
                  </g>
               </g>
               <g id="xfy2yge" class="staff">
                  <path d="M10723 3619 L14011 3619" stroke-width="13" />
                  <path d="M10723 3799 L14011 3799" stroke-width="13" />
                  <path d="M10723 3979 L14011 3979" stroke-width="13" />
                  <path d="M10723 4159 L14011 4159" stroke-width="13" />
                  <path d="M10723 4339 L14011 4339" stroke-width="13" />
                  <g class="ledgerLines above">
                     <path d="M11331 3439 L11717 3439" stroke-width="22" />
                  </g>
                  <g id="ibz4c80" class="layer">
                     <g id="j1snbmfa" class="note">
                        <g class="notehead">
                           <use xlink:href="#E0A2-u15syeld" transform="translate(11379, 3439) scale(0.72, 0.72)" />
                        </g>
                     </g>
                  </g>
                  <g id="k2aaicq" class="layer">
                     <g id="lj7uqrw" class="note">
                        <g class="notehead">
                           <use xlink:href="#E0A3-u15syeld" transform="translate(11379, 3799) scale(0.72, 0.72)" />
                        </g>
                        <g id="f10i0sqa" class="stem">
                           <path d="M11388 3824 L11388 4429" stroke-width="18" />
                        </g>
                     </g>
                     <g id="m1xftdmb" class="note">
                        <g class="notehead">
                           <use xlink:href="#E0A3-u15syeld" transform="translate(12689, 4069) scale(0.72, 0.72)" />
                        </g>
                        <g id="g1rlh1gc" class="stem">
                           <path d="M12698 4094 L12698 4639" stroke-width="18" />
                        </g>
                     </g>
                  </g>
               </g>
               <g id="v1m5mrno" class="barLine">
                  <path d="M13998 1819 L13998 2539" stroke-width="27" />
                  <path d="M13998 3619 L13998 4339" stroke-width="27" />
                  <path d="M13998 2539 L13998 3619" stroke-width="27" />
               </g>
            </g>
            <g id="n1vk6u6c" class="measure">
               <g id="w1m7vilc" class="staff">
                  <path d="M14011 1819 L17335 1819" stroke-width="13" />
                  <path d="M14011 1999 L17335 1999" stroke-width="13" />
                  <path d="M14011 2179 L17335 2179" stroke-width="13" />
                  <path d="M14011 2359 L17335 2359" stroke-width="13" />
                  <path d="M14011 2539 L17335 2539" stroke-width="13" />
                  <g id="yyxwvvt" class="layer">
                     <g id="bwk1010" class="chord">
                        <g id="he7udck" class="stem">
                           <path d="M14921 2511 L14921 1729" stroke-width="18" />
                        </g>
                        <g id="zz95id5" class="note">
                           <g class="notehead">
                              <use xlink:href="#E0A3-u15syeld" transform="translate(14704, 2539) scale(0.72, 0.72)" />
                           </g>
                           <g id="ag0xftf" class="accid">
                              <use xlink:href="#E260-u15syeld" transform="translate(14329, 2539) scale(0.72, 0.72)" />
                           </g>
                        </g>
                        <g id="ci6o4f8" class="note">
                           <g class="notehead">
                              <use xlink:href="#E0A3-u15syeld" transform="translate(14704, 2359) scale(0.72, 0.72)" />
                           </g>
                           <g id="d1e14xzt" class="accid">
                              <use xlink:href="#E273-u15syeld" transform="translate(14500, 2359) scale(0.72, 0.72)" />
                           </g>
                        </g>
                     </g>
                     <g id="g1fxsncw" class="chord">
                        <g id="i1l4l03m" class="stem">
                           <path d="M16230 2601 L16230 1819" stroke-width="18" />
                        </g>
                        <g id="eurirjj" class="note">
                           <g class="notehead">
                              <use xlink:href="#E0A3-u15syeld" transform="translate(16013, 2629) scale(0.72, 0.72)" />
                           </g>
                           <g id="fvi0sk5" class="accid">
                              <use xlink:href="#E273-u15syeld" transform="translate(15809, 2629) scale(0.72, 0.72)" />
                           </g>
                        </g>
                        <g id="h5ho10n" class="note">
                           <g class="notehead">
                              <use xlink:href="#E0A3-u15syeld" transform="translate(16013, 2449) scale(0.72, 0.72)" />
                           </g>
                        </g>
                     </g>
                  </g>
               </g>
               <g id="xjww6l" class="staff">
                  <path d="M14011 3619 L17335 3619" stroke-width="13" />
                  <path d="M14011 3799 L17335 3799" stroke-width="13" />
                  <path d="M14011 3979 L17335 3979" stroke-width="13" />
                  <path d="M14011 4159 L17335 4159" stroke-width="13" />
                  <path d="M14011 4339 L17335 4339" stroke-width="13" />
                  <g id="iwhg96h" class="layer">
                     <g id="jxlsu29" class="note">
                        <g class="notehead">
                           <use xlink:href="#E0A2-u15syeld" transform="translate(14704, 3529) scale(0.72, 0.72)" />
                        </g>
                        <g id="klwxpw8" class="accid">
                           <use xlink:href="#E260-u15syeld" transform="translate(14517, 3529) scale(0.72, 0.72)" />
                        </g>
                     </g>
                  </g>
                  <g id="l1e6szn4" class="layer">
                     <g id="m1lwtyhf" class="note">
                        <g class="notehead">
                           <use xlink:href="#E0A3-u15syeld" transform="translate(14704, 3889) scale(0.72, 0.72)" />
                        </g>
                        <g id="k1lk1qov" class="stem">
                           <path d="M14713 3914 L14713 4519" stroke-width="18" />
                        </g>
                        <g id="n1jfnvl3" class="accid">
                           <use xlink:href="#E260-u15syeld" transform="translate(14470, 3889) scale(0.72, 0.72)" />
                        </g>
                     </g>
                     <g id="o18s1vt2" class="note">
                        <g class="notehead">
                           <use xlink:href="#E0A3-u15syeld" transform="translate(16013, 4159) scale(0.72, 0.72)" />
                        </g>
                        <g id="l84orh2" class="stem">
                           <path d="M16022 4184 L16022 4699" stroke-width="18" />
                        </g>
                        <g id="p15ffttf" class="accid">
                           <use xlink:href="#E260-u15syeld" transform="translate(15826, 4159) scale(0.72, 0.72)" />
                        </g>
                     </g>
                  </g>
               </g>
               <g id="v13mr6wj" class="barLine">
                  <path d="M17322 1819 L17322 2539" stroke-width="27" />
                  <path d="M17322 3619 L17322 4339" stroke-width="27" />
                  <path d="M17322 2539 L17322 3619" stroke-width="27" />
               </g>
            </g>
            <g id="q122sd0o" class="measure">
               <g id="zpqyxpv" class="staff">
                  <path d="M17335 1819 L20003 1819" stroke-width="13" />
                  <path d="M17335 1999 L20003 1999" stroke-width="13" />
                  <path d="M17335 2179 L20003 2179" stroke-width="13" />
                  <path d="M17335 2359 L20003 2359" stroke-width="13" />
                  <path d="M17335 2539 L20003 2539" stroke-width="13" />
                  <g class="ledgerLines below">
                     <path d="M17798 2719 L18184 2719" stroke-width="22" />
                  </g>
                  <g id="b1uod3g" class="layer">
                     <g id="d1e3zmqd" class="chord">
                        <g id="c5crcv" class="note">
                           <g class="notehead">
                              <use xlink:href="#E0A2-u15syeld" transform="translate(17846, 2719) scale(0.72, 0.72)" />
                           </g>
                        </g>
                        <g id="e4bn493" class="note">
                           <g class="notehead">
                              <use xlink:href="#E0A2-u15syeld" transform="translate(17846, 2539) scale(0.72, 0.72)" />
                           </g>
                           <g id="fdhgxkw" class="accid">
                              <use xlink:href="#E273-u15syeld" transform="translate(17616, 2539) scale(0.72, 0.72)" />
                           </g>
                        </g>
                     </g>
                  </g>
               </g>
               <g id="a1qfs649" class="staff">
                  <path d="M17335 3619 L20003 3619" stroke-width="13" />
                  <path d="M17335 3799 L20003 3799" stroke-width="13" />
                  <path d="M17335 3979 L20003 3979" stroke-width="13" />
                  <path d="M17335 4159 L20003 4159" stroke-width="13" />
                  <path d="M17335 4339 L20003 4339" stroke-width="13" />
                  <g id="g1gtwcsq" class="layer">
                     <g id="h6tpjek" class="note">
                        <g class="notehead">
                           <use xlink:href="#E0A2-u15syeld" transform="translate(17845, 3709) scale(0.72, 0.72)" />
                        </g>
                     </g>
                  </g>
                  <g id="i1jf2f49" class="layer">
                     <g id="j9ver57" class="note">
                        <g class="notehead">
                           <use xlink:href="#E0A2-u15syeld" transform="translate(17845, 4069) scale(0.72, 0.72)" />
                        </g>
                     </g>
                  </g>
               </g>
               <g id="yp9mzf1" class="barLine">
                  <path d="M19828 1819 L19828 2539" stroke-width="27" />
                  <path d="M19958 1819 L19958 2539" stroke-width="90" />
                  <path d="M19828 3619 L19828 4339" stroke-width="27" />
                  <path d="M19958 3619 L19958 4339" stroke-width="90" />
                  <path d="M19828 2539 L19828 3619" stroke-width="27" />
                  <path d="M19958 2539 L19958 3619" stroke-width="90" />
               </g>
            </g>
            <g id="r12ozvps" class="systemMilestoneEnd hbgwxnl" />
         </g>
         <g id="s1ratxf4" class="pageMilestoneEnd f1h55xm8" />
         <g id="t17bww2c" class="pageMilestoneEnd es778x7" />
         <g id="kiwxisy" class="pgHead">
            <text font-size="0px">
               <tspan id="i61951r" class="rend" x="10000" y="279" text-anchor="middle">
                  <tspan id="j1m3xjnv" class="text">
                     <tspan font-size="405px">Harmonization of decatonic mode in 15-tET</tspan>
                  </tspan>
               </tspan>
            </text>
            <text font-size="0px">
               <tspan id="lktg0jz" class="rend" x="10000" y="645" text-anchor="middle">
                  <tspan id="my90wrj" class="text">
                     <tspan font-size="405px">Example 29</tspan>
                  </tspan>
               </tspan>
            </text>
            <text font-size="0px">
               <tspan id="n1otcde9" class="rend" x="20000" y="1011" text-anchor="end">
                  <tspan id="o1h4julf" class="text">
                     <tspan font-size="405px">Easley Blackwood</tspan>
                  </tspan>
               </tspan>
            </text>
         </g>
         <g id="u980jk1" class="pgFoot autogenerated">
            <g id="vjduxd" class="fig">
               <g class="svg" transform="translate(7750, 28099) scale(10.000000, 10.000000)">
                  <g>
                     <path fill="#00000" d="M 17.11278,49.26451 V 10.367554 h 12.696511 c 3.288815,7.336676 6.71267,14.610456 10.127281,21.888976 3.419998,-7.484684 6.255515,-14.204887 9.58887,-21.909915 2.436207,0.103726 4.316952,0.08453 6.484294,-0.05808 V 49.264423 H 50.274275 C 50.145222,38.35639 50.016136,27.448368 49.887066,16.540329 45.003488,27.315459 39.967448,38.433564 35.083854,49.208695 34.678996,49.343717 34.426583,49.135619 34.021726,49.270644 29.46588,39.330716 24.910049,29.390805 20.354201,19.450876 20.224341,29.388756 20.09461,39.326619 19.964815,49.264497 H 17.11278 Z M 36.754144,39.324695 C 32.721221,30.512695 28.6883,21.700679 24.655394,12.888662 22.530527,12.750737 22.656775,12.71031 20.714356,12.813974 v 0.966497 c 4.612938,9.99784 9.609439,20.748709 13.87298,30.081745 0.722248,-1.512523 1.444528,-3.025014 2.166808,-4.537521 z m 25.738417,9.939815 c 0,-12.965651 0,-25.931305 0,-38.896956 10.084388,0 20.168791,0 30.253178,0 0,0.960416 0,1.920849 0,2.881265 -6.482825,0 -12.965652,0 -19.448478,0 0,4.802097 0,9.604178 0,14.406277 5.52241,0 11.044819,0 16.567229,0 0,0.960415 0,1.920832 0,2.881248 -5.52241,0 -11.044819,0 -16.567229,0 0,5.282306 0,10.564611 0,15.846917 6.963035,0 13.926068,0 20.889103,0 0,0.960416 0,1.920832 0,2.881249 -10.564597,0 -21.129207,0 -31.693803,0 z m 4.321874,-2.160937 c 0,-11.765131 0,-23.530263 0,-35.295394 -0.720312,0 -1.440625,0 -2.160937,0 0,11.765131 0,23.530263 0,35.295394 0.720312,0 1.440625,0 2.160937,0 z m 32.41413,2.160937 c 0,-12.965651 0,-25.931305 0,-38.896956 2.401045,0 4.802095,0 7.203135,0 0,12.965651 0,25.931305 0,38.896956 -2.40104,0 -4.80209,0 -7.203135,0 z m 2.881265,-2.160937 c 0,-11.765131 0,-23.530263 0,-35.295394 -0.72031,0 -1.44064,0 -2.160953,0 0,11.765131 0,23.530263 0,35.295394 0.720313,0 1.440643,0 2.160953,0 z" />
                     <path fill="#00000" d="m 346.3,6.7 c -3.1,0.5 -4.9,4.4 -2.7,6.8 1.2,1.4 2.7,2.4 4.1,3.5 -2.4,5.3 -7.7,8.3 -11.9,12.1 -3.7,2.8 -7,6.2 -9.7,9.9 -2.2,-0.8 -0.91472,-7.718806 -0.62677,-9.5 0.28796,-1.781194 0.72677,-6.4 2.92677,-8.7 1.3,-1.9 3,-3.5 4.5,-5.2 1.2,-3.4 -3.2,-4.9 -5.8,-4.6 -7.3,-0.5 -14.6,2 -20,6.8 -5,4.6 -10,10.1 -11.5,17 -0.9,3.5 -0.2,7.5 2.8,9.9 2.5,2.8 7.4,2.9 9.8,-0.2 1.7,-2.3 3.2,-4.8 3.8,-7.6 -0.1,-2.6 -4.4,-2.3 -4.3,0.2 1.2,2.4 -0.9,4.7 -2.7,6.2 -1.7,0.9 -4.7,0.7 -4.8,-1.7 -1,-5.8 2.1,-11.3 5.2,-16.1 4,-5.8 9.8,-11.2 17.2,-11.8 1.6,0 8.1,-1.2 6.8,1.4 -2.8,2.8 -5.6,6.1 -6,10.3 -1.6,7.7 0.1,15.7 -2.3,23.2 -1.1,3.9 2,2.6 2.5,0.2 3.3,-7.4 8.9,-13.4 15.1,-18.5 4.2,-3.9 9.5,-7.1 11.9,-12.6 1.3,-3.6 1.2,-9 -2.7,-10.9 -0.50431,-0.1767056 -1.06965,-0.1654404 -1.6,-0.1 z m 66,14.5 c -2,0.8 -1.8,4.9 0.8,4.4 3.4,0.4 2.9,-6.2 -0.8,-4.4 z m 0.6,7.3 c -1.3,0.5 -7.6,0.5 -5.4,2.2 4,-0.3 0.7,4.5 0.6,6.7 -0.4,2.9 -2.4,5.9 -1.2,8.8 2.7,1.7 5.6,-0.8 6.8,-3.2 1.6,-1.4 -0.5,-3 -1.2,-0.9 -0.4,0.8 -2.4,3.5 -2.6,1.8 1.1,-5 2.7,-9.9 3.9,-14.9 l -0.1,-0.5 h -0.9 z m -65.1,0.2 c -6.5,1.6 -10.5,9.5 -8.2,15.7 2.1,3.4 7.4,2.9 10.1,0.4 2,-0.2 3.6,-5.3 1,-3.4 -1.4,2 -4,4.2 -6.5,2.8 -2.2,-1.9 -1.9,-5.7 1.7,-5.3 3.1,-0.9 6.9,-2.1 8.1,-5.5 0.9,-2.7 -1.6,-5.2 -4.3,-4.8 h -1.1 -0.7 z m 13.6,0 c -2.2,0 -8.5,1.8 -2.9,2.3 0.9,1.9 -1,4.9 -1.1,7.2 -0.5,2.9 -1.4,5.7 -1.7,8.7 3.7,0.7 3.8,-2.6 4.4,-5.3 0.9,-3.3 1.6,-7 4.1,-9.5 2.4,1.6 6.8,-0.7 3.7,-3.4 -2.9,-0.5 -4.8,2.4 -6.2,4.3 0,-1.2 2.4,-5 -0.2,-4.3 z m 15.8,0 c -6.4,1.3 -9.6,9.1 -7.7,14.9 1.9,4 7.7,3.9 11,1.7 4.1,-3 6,-8.9 4.4,-13.7 -1.3,-3 -4.8,-3.2 -7.6,-3 z m 17,0 c -2.3,0 -8.8,1.9 -3,2.4 0.4,2.5 -1,5.7 -1.4,8.4 -0.7,2.4 -1.8,7.5 2.1,7.2 3.8,-0.1 6.5,-3.5 8.5,-6.3 2,-3.2 4.5,-7 3.3,-10.9 -3.7,-3 -3.6,2.6 -3.1,5.1 -0.7,3.8 -2.7,7.9 -6.2,9.8 -3.6,0.6 -1,-4.3 -0.8,-6.1 0.6,-3.2 1.6,-6.3 1.9,-9.5 h -1.1 z m 30.6,0 c -6.3,1.2 -9.5,8.9 -7.8,14.7 1.5,4 7.2,4.2 10.5,2.4 4.6,-2.8 6.6,-9.3 4.8,-14.3 -1.4,-2.8 -4.8,-3 -7.5,-2.8 z m -75.4,1.7 c 2.1,1.5 0.2,4.7 -1.6,5.7 -1.1,0.4 -5.5,3.4 -4.6,0.7 0.8,-2.7 2.2,-6.2 5.3,-6.6 l 0.9,0.1 z m 30.8,0 c 2.6,1.5 1.3,5.2 0.8,7.6 -0.8,2.7 -1.9,5.9 -4.7,7.1 -5.1,0.8 -4,-5.8 -2.8,-8.8 1,-2.8 3,-6.8 6.7,-5.8 z m 47.1,-0.1 c 2.9,0.7 2,4.7 1.5,6.8 -0.7,3 -1.8,6.7 -5,8 -4.7,0.8 -4,-5.1 -3,-7.9 0.9,-3 2.7,-7.3 6.5,-6.8 z" />
                     <g>
                        <path d="m 116.56641,37.118164 q 0,-3.251953 2.92968,-6.298828 2.90039,-3.046875 5.99121,-3.046875 1.14258,0 1.81641,0.527344 0.67383,0.527343 0.67383,1.567382 0,2.109375 -2.47559,3.618165 -2.46093,1.49414 -5.18554,1.831054 l -0.83496,0.102539 q -0.19043,0.600586 -0.26368,0.966797 -0.0732,0.351563 -0.0732,0.893555 0,1.289062 0.83496,2.006836 0.84961,0.717773 2.00684,0.717773 1.09863,0 2.3291,-0.732422 0.70312,-0.424804 2.03613,-1.523437 l 0.38086,0.336914 q -0.65918,0.834961 -1.88965,1.713867 -2.18261,1.567383 -4.37988,1.567383 -1.55273,0 -2.72461,-1.098633 -1.17187,-1.098633 -1.17187,-3.149414 z m 3.12011,-2.358398 q 2.79786,-0.410157 4.55567,-1.962891 Q 126,31.229492 126,29.691406 q 0,-0.55664 -0.26367,-0.878906 -0.26367,-0.336914 -0.77637,-0.336914 -0.95215,0 -1.875,0.820312 -0.9082,0.805664 -1.64062,1.831055 -0.77637,1.201172 -1.23047,2.299805 -0.24903,0.585937 -0.52735,1.333008 z" />
                        <path d="m 129.47168,41 2.53418,-9.052734 q 0.32226,-1.142579 0.36621,-1.376954 0.0586,-0.249023 0.0586,-0.527343 0,-0.424805 -0.24902,-0.65918 -0.23437,-0.249023 -0.9375,-0.249023 -0.17578,0 -0.35156,0.0293 -0.16113,0.01465 -0.36621,0.04395 v -0.498047 q 0.95215,-0.146484 1.34765,-0.219727 0.41016,-0.07324 0.87891,-0.175781 l 2.62207,-0.571289 q 0.0879,0.05859 0.11719,0.131836 l -1.94824,6.298828 q 1.7871,-2.739258 2.98828,-4.072266 2.10937,-2.358398 3.77929,-2.358398 0.64453,0 1.11328,0.249023 0.89356,0.483399 0.89356,1.743165 0,0.351562 -0.0732,0.732421 -0.0732,0.38086 -0.19043,0.820313 l -1.91895,7.016601 q -0.0586,0.219727 -0.13183,0.541993 -0.0733,0.307617 -0.0733,0.439453 0,0.219726 0.10254,0.395508 0.10254,0.175781 0.33692,0.175781 0.38086,0 0.8789,-0.439453 0.49805,-0.454102 1.62598,-1.918946 l 0.4248,0.38086 q -1.20117,1.625976 -1.90429,2.285156 -1.20117,1.157227 -2.29981,1.157227 -0.49804,0 -0.96679,-0.322266 -0.45411,-0.336914 -0.45411,-1.201172 0,-0.249023 0.0293,-0.527344 0.0439,-0.27832 0.10254,-0.483398 l 1.8457,-7.119141 q 0.14649,-0.585937 0.19043,-0.952148 0.0586,-0.38086 0.0586,-0.541992 0,-0.351563 -0.17578,-0.600586 -0.16114,-0.263672 -0.58594,-0.263672 -1.09863,0 -2.76856,1.992187 -0.98144,1.186524 -1.99218,2.827149 -0.77637,1.274414 -1.23047,2.490234 Q 132.70898,37.821289 131.74219,41 Z" />
                        <path d="m 149.12988,33.5 q 0,0.908203 0.27832,1.450195 0.46875,0.893555 1.68457,0.893555 1.31836,0 2.34375,-1.669922 1.04004,-1.68457 1.04004,-3.706055 0,-0.966796 -0.4248,-1.508789 -0.42481,-0.55664 -1.27442,-0.55664 -1.64062,0 -2.65136,1.743164 -0.9961,1.743164 -0.9961,3.354492 z m 0.5127,13.066406 q 1.74316,0 2.88574,-0.834961 1.15723,-0.834961 1.15723,-1.992187 0,-0.878906 -0.60059,-1.479492 -0.32226,-0.322266 -1.04004,-0.688477 -0.60058,-0.292969 -2.03613,-0.834961 -1.4209,-0.556641 -1.64063,-0.556641 -0.38086,0 -1.47949,1.010743 -1.09863,1.02539 -1.09863,2.314453 0,1.948242 1.68457,2.680664 0.87891,0.380859 2.16797,0.380859 z m -5.47852,-2.680664 q 0,-1.098633 0.83496,-2.094726 0.84961,-0.981446 2.68067,-1.962891 -0.36621,-0.234375 -0.60059,-0.483398 -0.23437,-0.263672 -0.23437,-0.688477 0,-0.600586 0.83496,-1.376953 0.46875,-0.439453 1.52343,-1.157227 -0.9375,-0.351562 -1.61132,-0.996093 -0.82032,-0.864258 -0.82032,-2.241211 0,-2.211914 1.72852,-3.676758 1.72852,-1.464844 4.27734,-1.464844 1.33301,0 2.25586,0.424805 0.92285,0.410156 1.08399,0.688476 h 1.97754 v 1.171875 h -1.49414 q 0.0879,0.322266 0.13183,0.585938 0.0439,0.263672 0.0439,0.74707 0,2.373047 -1.84571,3.735352 -1.83105,1.362304 -3.95507,1.362304 -0.21973,0 -0.41016,-0.01465 -0.19043,-0.0293 -0.46875,-0.08789 -0.21973,0 -0.60059,0.424805 -0.3955,0.424805 -0.3955,0.761719 0,0.498047 3.22265,1.699218 3.20801,1.215821 3.20801,3.559571 0,1.757812 -1.61133,3.076172 -1.61133,1.333007 -4.86328,1.333007 -2.25586,0 -3.57422,-0.966796 -1.31836,-0.966797 -1.31836,-2.358399 z" />
                        <path d="m 165.03809,27.669922 q 0.13183,0 0.17578,0.08789 0.0586,0.07324 0.0586,0.175782 -0.0146,0.146484 -0.0293,0.219726 l -1.46484,5.668946 0.32227,-0.629883 q 1.05468,-2.06543 2.46093,-3.764649 1.4209,-1.713867 2.69532,-1.713867 0.68847,0 1.05468,0.454102 0.38086,0.454101 0.38086,1.040039 0,0.659179 -0.38086,1.098633 -0.36621,0.424804 -1.02539,0.424804 -0.4541,0 -0.68847,-0.175781 -0.23438,-0.175781 -0.36621,-0.410156 l -0.17579,-0.322266 q -0.0586,-0.08789 -0.14648,-0.131836 -0.0732,-0.05859 -0.19043,-0.05859 -0.57129,0 -1.65527,1.59668 -1.06934,1.59668 -1.91895,3.457031 -0.51269,1.12793 -1.14258,2.988282 Q 162.60645,38.84668 161.94727,41 h -2.25586 l 2.43164,-8.818359 q 0.20507,-0.761719 0.32226,-1.362305 0.13184,-0.600586 0.13184,-0.981445 0,-0.439454 -0.21973,-0.673829 -0.21972,-0.234375 -0.76172,-0.234375 -0.17578,0 -0.43945,0.0293 -0.26367,0.0293 -0.62988,0.07324 v -0.483399 l 0.58593,-0.117187 q 1.14258,-0.234375 2.49024,-0.498047 1.3623,-0.263672 1.43555,-0.263672 z" />
                        <path d="m 181.51758,30.423828 q 0,-1.054687 -0.4834,-1.552734 -0.4834,-0.498047 -1.17188,-0.498047 -2.38769,0 -4.43847,3.662109 -1.80176,3.222656 -1.80176,5.551758 0,1.171875 0.49805,1.713867 0.51269,0.527344 1.25976,0.527344 2.21192,0 4.2627,-3.55957 1.875,-3.237305 1.875,-5.844727 z m -1.83106,-2.709961 q 1.15723,0 1.78711,0.600586 0.33692,0.322266 0.52735,0.849609 l 0.0732,0.205079 0.32226,-1.113282 q 0.0586,-0.190429 0.10254,-0.249023 0.0439,-0.07324 0.20508,-0.08789 l 1.65527,-0.190429 q 0.13184,0 0.14649,0.05859 0.0293,0.04395 0,0.175782 -0.0586,0.190429 -0.0879,0.307617 -0.0293,0.102539 -0.0879,0.307617 l -1.34766,5.244141 q -0.43945,1.713867 -0.74707,2.958984 -0.54199,2.255859 -0.54199,2.578125 0,0.205078 0.10254,0.307617 0.11719,0.08789 0.27832,0.08789 0.13183,0 0.27832,-0.08789 0.16113,-0.08789 0.38086,-0.263672 l 0.24902,-0.205078 q 0.11719,-0.102539 0.26367,-0.234375 0.14649,-0.146484 0.35157,-0.351562 l 0.9082,-0.9375 0.35156,0.307617 q -1.52344,1.948242 -2.44629,2.651367 -0.92285,0.688477 -1.75781,0.688477 -0.54199,0 -0.84961,-0.38086 -0.29297,-0.380859 -0.29297,-0.952148 0,-0.527344 0.19043,-1.508789 0.20508,-0.996094 0.39551,-1.669922 -0.26367,0.439453 -0.89356,1.289062 -0.61523,0.834961 -1.52343,1.625977 -1.06934,0.952148 -2.05078,1.347656 -0.76172,0.263672 -1.46485,0.263672 -1.18652,0 -2.15332,-0.966797 -0.96679,-0.981445 -0.96679,-2.768555 0,-3.076171 2.7539,-6.416015 2.8418,-3.47168 5.88867,-3.47168 z" />
                        <path d="m 196.66406,27.772461 q 0.82031,0 1.25977,0.585937 0.43945,0.585938 0.43945,1.333008 0,1.977539 -3.91113,6.928711 -3.70606,4.702149 -4.43848,4.702149 -0.21972,0 -0.29297,-0.600586 -0.0439,-0.336914 -0.0439,-1.142578 0,-0.981446 -0.19043,-3.325196 -0.19043,-2.34375 -0.36621,-3.471679 -0.36621,-2.475586 -0.71778,-3.19336 -0.35156,-0.717773 -1.333,-0.717773 -0.16114,0 -0.38086,0.01465 -0.20508,0.01465 -0.4834,0.04395 v -0.380859 q 0.43945,-0.08789 1.8457,-0.395508 1.40625,-0.307617 1.49414,-0.336914 l 0.4834,-0.146484 q 0.20508,-0.05859 0.32227,0.234375 0.11718,0.27832 0.29296,1.054687 0.55665,2.548828 0.83497,5.024414 0.17578,1.538086 0.35156,4.555664 l 0.4834,-0.512695 q 1.50879,-1.59668 3.01757,-3.793945 1.50879,-2.197266 1.50879,-3.105469 0,-0.454101 -0.65918,-1.083984 -0.65918,-0.644532 -0.65918,-1.171875 0,-0.483399 0.32227,-0.791016 0.33691,-0.307617 0.82031,-0.307617 z" />
                        <path d="m 199.82812,37.118164 q 0,-3.251953 2.92969,-6.298828 2.90039,-3.046875 5.99121,-3.046875 1.14258,0 1.81641,0.527344 0.67383,0.527343 0.67383,1.567382 0,2.109375 -2.47559,3.618165 -2.46094,1.49414 -5.18555,1.831054 l -0.83496,0.102539 q -0.19043,0.600586 -0.26367,0.966797 -0.0732,0.351563 -0.0732,0.893555 0,1.289062 0.83496,2.006836 0.84961,0.717773 2.00684,0.717773 1.09863,0 2.3291,-0.732422 0.70312,-0.424804 2.03613,-1.523437 l 0.38086,0.336914 q -0.65918,0.834961 -1.88965,1.713867 -2.18262,1.567383 -4.37988,1.567383 -1.55274,0 -2.72461,-1.098633 -1.17188,-1.098633 -1.17188,-3.149414 z m 3.12012,-2.358398 q 2.79785,-0.410157 4.55567,-1.962891 1.75781,-1.567383 1.75781,-3.105469 0,-0.55664 -0.26367,-0.878906 -0.26368,-0.336914 -0.77637,-0.336914 -0.95215,0 -1.875,0.820312 -0.9082,0.805664 -1.64063,1.831055 -0.77636,1.201172 -1.23046,2.299805 -0.24903,0.585937 -0.52735,1.333008 z" />
                        <path d="m 215.23828,37.601562 q 0,0.893555 0.41016,1.567383 0.41015,0.65918 1.3916,0.65918 2.09473,0 4.02832,-3.369141 1.81641,-3.164062 1.81641,-5.991211 0,-0.893554 -0.29297,-1.479492 -0.29297,-0.585937 -1.18653,-0.585937 -2.22656,0 -4.30664,3.603515 -1.86035,3.222657 -1.86035,5.595703 z m 6.00586,-9.887695 q 1.15723,0 1.64063,0.556641 0.27832,0.322265 0.43945,1.098633 l 1.66992,-6.00586 q 0.0732,-0.249023 0.0879,-0.439453 0.0293,-0.205078 0.0293,-0.351562 0,-0.571289 -0.21973,-0.717774 -0.20508,-0.146484 -0.60058,-0.146484 -0.24903,0 -0.46875,0.01465 -0.20508,0.01465 -0.55665,0.04395 v -0.483399 q 1.65528,-0.219726 4.58497,-0.761719 l 0.13183,0.146485 -0.0293,0.161133 -2.8125,10.532226 -1.91894,6.972656 q -0.0586,0.234375 -0.10254,0.439453 -0.0293,0.19043 -0.0293,0.351563 0,0.395508 0.19043,0.512695 0.20508,0.117188 0.35157,0.117188 0.4248,0 1.20117,-0.747071 0.4541,-0.454101 1.24511,-1.40625 l 0.33692,0.322266 -0.20508,0.307617 q -0.54199,0.805664 -1.3916,1.640625 -1.50879,1.479492 -2.70996,1.479492 -0.39551,0 -0.71778,-0.175781 -0.60058,-0.351562 -0.60058,-1.259765 0,-0.307618 0.0879,-0.981446 0.0879,-0.673828 0.26367,-1.464843 -1.11328,1.699218 -2.44629,2.783203 -1.31836,1.083984 -2.88574,1.083984 -1.27441,0 -2.22656,-0.908203 -0.95215,-0.908203 -0.95215,-2.797852 0,-3.193359 2.92969,-6.5625 2.91504,-3.354492 5.68359,-3.354492 z" />
                        <path d="m 254.12988,29.530273 q 0,1.230469 -1.18652,3.251954 -0.65918,1.127929 -1.86035,2.739257 -1.23047,1.655274 -2.53418,3.266602 -2.06543,2.548828 -2.43164,2.548828 -0.16114,0 -0.20508,-0.131836 -0.044,-0.131836 -0.11719,-0.893555 l -0.86426,-9.125976 -6.0791,9.960937 q -0.0439,0.08789 -0.11719,0.117188 -0.0586,0.0293 -0.13183,0.0293 l -0.20508,-0.04395 -0.0293,-0.131836 -0.17578,-3.618164 q -0.0586,-1.21582 -0.17578,-2.504882 -0.10254,-1.303711 -0.20508,-2.25586 -0.30761,-2.651367 -0.65918,-3.251953 -0.33691,-0.600586 -1.25976,-0.600586 -0.17578,0 -0.35156,0.01465 -0.17579,0 -0.36622,0.0293 v -0.424804 q 0.60059,-0.102539 1.14258,-0.219727 0.55664,-0.117187 1.21582,-0.263672 l 1.37696,-0.351562 q 0.49804,0 1.01074,4.174805 0.27832,2.285156 0.49805,5.200195 l 5.75683,-9.09668 q 0.0586,-0.117187 0.14649,-0.19043 0.0879,-0.08789 0.20507,-0.08789 0.13184,0 0.17578,0.08789 0.0439,0.08789 0.0586,0.263672 l 0.98144,10.590821 q 0.10254,-0.131836 1.62598,-2.06543 1.52344,-1.948242 1.59668,-2.06543 1.09863,-1.582031 1.46484,-2.446289 0.23438,-0.55664 0.23438,-1.083984 0,-0.205078 -0.0586,-0.38086 -0.0586,-0.190429 -0.27833,-0.395507 L 251.87402,29.75 q -0.19043,-0.19043 -0.33691,-0.410156 -0.13184,-0.234375 -0.13184,-0.541992 0,-0.366211 0.24903,-0.747071 0.26367,-0.380859 0.9375,-0.380859 0.54199,0 1.04004,0.439453 0.49804,0.424805 0.49804,1.420898 z" />
                        <path d="m 261.17578,24.520508 q -0.60058,0 -1.02539,-0.46875 -0.4248,-0.46875 -0.4248,-1.12793 0,-0.673828 0.4248,-1.142578 0.42481,-0.46875 1.02539,-0.46875 0.60059,0 1.02539,0.46875 0.43945,0.46875 0.43945,1.142578 0,0.673828 -0.43945,1.142578 -0.4248,0.454102 -1.02539,0.454102 z m 0.35156,3.208008 q 0.0879,0.04395 0.0733,0.117187 l -2.95899,10.458984 q -0.20508,0.834961 -0.20508,0.996094 0,0.219727 0.0879,0.38086 0.0733,0.175781 0.36621,0.175781 0.49805,0 1.31836,-0.864258 0.4834,-0.512695 1.18653,-1.464844 l 0.38086,0.322266 -0.14649,0.205078 q -1.09863,1.538086 -1.8164,2.211914 -1.12793,1.054688 -2.19727,1.054688 -0.62988,0 -1.05469,-0.527344 -0.41015,-0.527344 -0.41015,-1.245117 0,-0.424805 0.0586,-0.732422 0.0586,-0.322266 0.21973,-0.9375 l 2.05078,-7.529297 q 0.0439,-0.175781 0.0732,-0.322266 0.0293,-0.146484 0.0293,-0.292968 0,-0.527344 -0.39551,-0.644532 -0.38086,-0.131836 -1.52344,-0.131836 v -0.483398 q 1.21582,-0.146484 1.74317,-0.219727 0.54199,-0.08789 1.08398,-0.175781 0.70313,-0.117187 1.33301,-0.263672 0.62988,-0.146484 0.70312,-0.08789 z" />
                        <path d="m 264.17871,40.033203 q 0,-0.117187 0.0146,-0.263672 0.0147,-0.161133 0.0586,-0.322265 l 2.75391,-10.239258 h -2.22656 q 0,-0.395508 0.0586,-0.498047 0.0586,-0.102539 0.29297,-0.205078 1.47949,-0.629883 2.28516,-1.215821 0.82031,-0.585937 2.22656,-2.255859 l 0.23437,-0.27832 q 0.0439,-0.05859 0.10254,-0.08789 0.0732,-0.04395 0.14649,-0.04395 0.14648,0.0293 0.20507,0.05859 0.0439,0.102539 0.0439,0.190429 0.0147,0.07324 0,0.161133 l -0.83496,3.193359 h 2.38769 l -0.17578,0.981446 h -2.49023 l -2.63672,9.858398 q -0.0732,0.263672 0.0439,0.512696 0.11718,0.234375 0.3955,0.234375 0.38086,0 1.06934,-0.761719 0.39551,-0.410156 1.33301,-1.625977 l 0.38086,0.219727 -0.20508,0.307617 q -1.25977,1.889648 -2.22656,2.636719 -0.95215,0.732422 -1.81641,0.732422 -0.74707,0 -1.08399,-0.395508 -0.33691,-0.395508 -0.33691,-0.893555 z" />
                        <path d="m 274.69629,21.356445 q 0.9375,-0.131836 1.50879,-0.205078 0.58594,-0.08789 1.01074,-0.161133 1.72852,-0.336914 1.86035,-0.366211 0.13184,-0.0293 0.20508,-0.0293 0.17578,0.08789 0.17578,0.219726 l -3.44238,13.081055 q 1.8457,-2.72461 3.01758,-3.984375 2.05078,-2.167969 3.76464,-2.167969 0.70313,0 1.34766,0.454102 0.65918,0.439453 0.65918,1.596679 0,0.278321 -0.0732,0.717774 -0.0732,0.439453 -0.17578,0.776367 l -1.97754,7.016601 q -0.0879,0.292969 -0.14649,0.57129 -0.0586,0.263671 -0.0586,0.483398 0,0.249023 0.11719,0.380859 0.11719,0.117188 0.33691,0.117188 0.4541,0 1.06934,-0.629883 0.38086,-0.395508 1.4209,-1.728516 l 0.38086,0.351563 q -1.0254,1.523437 -1.74317,2.226562 -1.27441,1.245118 -2.56348,1.245118 -0.58593,0 -0.98144,-0.366211 -0.39551,-0.366211 -0.39551,-1.054688 0,-0.19043 0.0147,-0.351562 0.0293,-0.175782 0.0879,-0.38086 l 2.25586,-8.583984 q 0.0293,-0.117188 0.0439,-0.234375 0.0293,-0.131836 0.0293,-0.263672 0,-0.366211 -0.21972,-0.571289 -0.23438,-0.205078 -0.60059,-0.205078 -0.98145,0 -2.47559,1.582031 -1.49414,1.567383 -2.51953,3.208008 -0.70312,1.157226 -1.06933,2.182617 Q 275.20898,37.308594 274.18359,41 h -2.2705 l 4.6875,-17.768555 q 0.0439,-0.190429 0.0586,-0.322265 0.0147,-0.131836 0.0147,-0.249024 0,-0.629883 -0.41016,-0.74707 -0.41015,-0.131836 -1.56738,-0.07324 z" />
                     </g>
                  </g>
               </g>
            </g>
         </g>
      </g>
   </svg>
</svg>
